<?xml version="1.0" encoding="UTF-8"?>
<svg id="_图层_1" data-name="图层 1" xmlns="http://www.w3.org/2000/svg" viewBox="0 0 1025 1025">
  <defs>
    <style>
      .cls-1 {
        fill: #387aee;
      }

      .cls-2, .cls-3 {
        fill: #3670de;
        stroke: #3670de;
        stroke-width: 4px;
      }

      .cls-2, .cls-4 {
        stroke-miterlimit: 10;
      }

      .cls-3 {
        stroke-linecap: round;
        stroke-linejoin: round;
      }

      .cls-4 {
        fill: #eaeaea;
        stroke: #fff;
      }
    </style>
  </defs>
  <rect class="cls-4" x=".5" y=".5" width="1024" height="1024" rx="234.35" ry="234.35"/>
  <line class="cls-2" x1="253.42" y1=".5" x2="253.42" y2="1024.5"/>
  <line class="cls-2" x1="511.55" y1=".5" x2="511.55" y2="1024.5"/>
  <line class="cls-2" x1="769.69" y1=".5" x2="769.69" y2="1024.5"/>
  <line class="cls-2" x1=".5" y1="212.41" x2="1024.5" y2="212.41"/>
  <line class="cls-2" x1=".5" y1="462.72" x2="1024.5" y2="466.51"/>
  <line class="cls-2" x1=".5" y1="716.83" x2="1024.5" y2="718.72"/>
  <line class="cls-3" x1="91.5" y1="972.5" x2="932.5" y2="972.5"/>
  <path class="cls-1" d="M188.44,612.39c37.55,31.1,80.22,46.64,128.01,46.64,27.11,0,47.49-4.66,61.15-13.99,13.65-9.33,20.48-21.31,20.48-35.96,0-12.64-5.42-24.57-16.27-35.81-10.84-11.23-39.46-26.48-85.84-45.74-72.89-30.89-109.34-75.83-109.34-134.81,0-43.33,16.51-76.99,49.55-100.96,33.03-23.97,76.76-35.96,131.17-35.96,45.58,0,83.83,5.92,114.76,17.75v93.29c-31.33-21.26-67.97-31.9-109.94-31.9-24.5,0-44.08,4.47-58.73,13.39-14.66,8.93-21.99,20.91-21.99,35.96,0,12.04,5.02,23.12,15.06,33.25,10.04,10.13,34.84,23.82,74.4,41.08,46.39,19.86,78.26,40.83,95.63,62.89,17.37,22.07,26.05,48.35,26.05,78.84,0,44.74-15.87,78.84-47.59,102.32-31.73,23.47-76.81,35.21-135.24,35.21-53.42,0-97.19-8.62-131.33-25.88v-99.61Z"/>
  <path class="cls-1" d="M664.63,692.39v36.94h-89.81v-454.72h89.81v194.44h1.11c23.54-36.29,57.09-54.44,100.65-54.44,38.74,0,69.09,13.52,91.06,40.56,21.96,27.04,32.95,64.35,32.95,111.94,0,50.93-12.61,91.95-37.81,123.06-25.21,31.11-58.67,46.67-100.37,46.67-38.19,0-67.01-14.81-86.47-44.44h-1.11ZM663.24,596.56c0,20.19,6.02,37.13,18.07,50.83,12.05,13.71,27.34,20.56,45.88,20.56,22.42,0,39.9-8.7,52.41-26.11,12.51-17.4,18.77-42.04,18.77-73.89,0-26.48-5.7-47.17-17.1-62.08-11.4-14.9-27.67-22.36-48.8-22.36-20.02,0-36.56,7.5-49.63,22.5-13.07,15-19.6,34.26-19.6,57.78v32.78Z"/>
</svg>